<svg xmlns="http://www.w3.org/2000/svg" width="737" height="737" fill="#fff" fill-rule="evenodd" stroke="#000" stroke-linecap="round" stroke-linejoin="round"><style>.B{stroke:none}.C{fill:url(#C)}.D{fill:#96bf3d}.E{fill-rule:nonzero}</style><defs><filter id="A" width="104.056%" height="106.074%" x="-1.818%" y="-2.723%"><feGaussianBlur in="SourceAlpha" stdDeviation="5"/><feOffset dx="3" dy="3" result="B"/><feFlood flood-color="#000" flood-opacity=".5"/><feComposite in2="B" operator="in" result="C"/><feMerge><feMergeNode in="C"/><feMergeNode in="SourceGraphic"/></feMerge></filter><filter id="B" width="109.831%" height="108.056%" x="-4.407%" y="-3.611%"><feGaussianBlur in="SourceAlpha" stdDeviation="5"/><feOffset dx="3" dy="3" result="B"/><feFlood flood-color="#000" flood-opacity=".5"/><feComposite in2="B" operator="in" result="C"/><feMerge><feMergeNode in="C"/><feMergeNode in="SourceGraphic"/></feMerge></filter><linearGradient id="C" x1="0%" x2="100%" y1="0%" y2="100%"><stop offset="0%" stop-color="#d7d7d7"/><stop offset="100%" stop-color="#626262"/></linearGradient></defs><rect width="735" height="660" x="-.5" y="39.5" rx="25"/><g fill="#c1c1c1" class="B E" filter="url(#A)" transform="translate(9.5 124.5)"><path d="M16.7525 286.7298C6.7066 275.7455 0 253.8097 0 234.5909c0-19.2061 5.0266-37.032 17.5891-46.6336h-.8357L214.4292 0v127.5964c-21.7784 20.5762-51.0939 43.9057-124.8028 108.3891l.8357 1.3552c39.3673 28.822 84.5988 72.7163 123.9662 111.1297v128.966z"/><g><path d="M197.6761 190.6956c10.0385 10.985 16.7523 32.9317 16.7523 52.1396s-5.0268 37.0308-17.5962 46.6336h.8443L0 477.4266V349.8297c21.7793-20.5648 51.094-43.8937 124.8034-108.3777l-.8357-1.3553C84.607 211.2747 39.3692 167.3799.0009 128.9676V0z" transform="translate(500.5716 .0017)"/></g></g><g class="B" filter="url(#B)" transform="translate(219.5 179.5)"><g><path d="M0 261.9238l143.1698-87.4534V0L0 87.2109v174.7129z" transform="translate(147.229 92.5951)"/></g><g><path d="M0 174.2764l142.9894 87.3081V87.1142L0 0v174.2764z" transform="translate(4.3302 92.7405)"/></g><g><path d="M284.1743 86.5805L142.0872 0 0 86.5805l142.0872 86.7257 142.0871-86.7257z" transform="translate(5.2325 6.0147)"/></g><g><path d="M0 81.5845L133.8327.0967 133.6974 0 0 81.5845z" transform="translate(147.3196 92.5951)"/></g><g><path d="M.1353 0L0 .0967l133.8327 81.4878L.1353 0z" transform="translate(13.487 92.5951)"/></g><g><path d="M0 0z" transform="translate(147.3196 174.1792)"/></g><path fill="#444" d="M290.1287 87.017L147.3196 0 4.5106 87.017 0 89.8789v180.0482L147.5 360l4.5106-2.7648L295 269.9271V89.8303zm-4.511 177.2837l-133.7875 81.7786V182.6194l133.9679-81.6331zm-142.809 81.7786L8.8407 264.2521V100.9863l133.968 81.6331zM13.6223 92.6919l133.6973-81.536 133.6974 81.536-133.6974 81.4873L13.487 92.6919z"/><g class="C"><path d="M0 140.566l76.9073-46.9039V0L0 46.8553v93.7107z" transform="translate(147.9058 133.4844)"/></g><g class="C"><path d="M0 93.6621l76.9073 46.9039V46.8553L0 0v93.6621z" transform="translate(69.8257 133.4844)"/></g><g class="C"><path d="M153.3638 46.71L76.6819 0 0 46.71l76.6819 46.8554L153.3638 46.71z" transform="translate(70.6373 85.513)"/></g><g class="D"><path d="M0 42.102L68.9685.0968 68.8787 0 0 42.0534v.0486z" transform="translate(147.3196 132.223)"/></g><g class="D"><path d="M.0902 0L0 .0968 68.9685 42.102v-.0486L.0902 0z" transform="translate(78.3507 132.223)"/></g><g class="D"><path d="M0 0z" transform="translate(147.3196 174.2764)"/></g><g><path d="M160.5811 47.4858L82.5456 0 4.5106 47.4858 0 50.2992v100.9377l82.5456 50.4446 4.511-2.7648 78.1253-47.6798V50.2992zm-4.5109 98.0762l-69.0136 42.1987v-84.2035l69.1042-42.102zm-78.0351 42.1987L8.9309 145.562V61.4552l69.1042 42.102zM13.6674 53.064l68.8782-41.908 68.8787 41.9566-68.8787 42.0048-68.9684-41.9566z" transform="translate(64.7736 79.159)"/></g></g></svg>