<svg xmlns="http://www.w3.org/2000/svg" width="447" height="301" viewBox="0 0 492 332"><style>.B{stroke:#4f4f4f}.C{flood-color:#000}.D{flood-opacity:.5}.E{stroke-width:11}</style><defs><filter id="A" width="104.056%" height="106.074%" x="-1.818%" y="-2.723%"><feGaussianBlur in="SourceAlpha" stdDeviation="5"/><feOffset dx="3" dy="3" result="B"/><feFlood class="C D"/><feComposite in2="B" operator="in" result="C"/><feMerge><feMergeNode in="C"/><feMergeNode in="SourceGraphic"/></feMerge></filter><filter id="B" width="118.772%" height="119.467%" x="-8.412%" y="-8.724%"><feGaussianBlur in="SourceAlpha" stdDeviation="5"/><feOffset dx="3" dy="3" result="B"/><feFlood class="C D"/><feComposite in2="B" operator="in" result="C"/><feMerge><feMergeNode in="C"/><feMergeNode in="SourceGraphic"/></feMerge></filter><filter id="C" width="364.474%" height="470.264%" x="-121.218%" y="-169.704%"><feGaussianBlur in="SourceAlpha" stdDeviation="5"/><feOffset dx="3" dy="3" result="B"/><feFlood class="C D"/><feComposite in2="B" operator="in" result="C"/><feMerge><feMergeNode in="C"/><feMergeNode in="SourceGraphic"/></feMerge></filter><filter id="D" width="157.851%" height="281.818%" x="-26.446%" y="-83.117%"><feGaussianBlur in="SourceAlpha" stdDeviation="5"/><feOffset dx="3" dy="3" result="B"/><feFlood class="C D"/><feComposite in2="B" operator="in" result="C"/><feMerge><feMergeNode in="C"/><feMergeNode in="SourceGraphic"/></feMerge></filter></defs><g fill="#c1c1c1" filter="url(#A)" transform="translate(24.8872 19.3872)"><path d="M10.3093 176.4491C4.1271 169.6895 0 156.1906 0 144.3637c0-11.8192 3.0933-22.789 10.8241-28.6977h-.5143L131.9564 0v78.5208c-13.402 12.6623-31.4424 27.019-76.8017 66.701l.5143.834c24.226 17.7366 52.0608 44.7485 76.2869 68.3875v79.3637z"/><g><path d="M121.6469 117.3511c6.1774 6.76 10.309 20.2657 10.309 32.0859s-3.0934 22.7882-10.8284 28.6976h.5196L0 293.801v-78.5212c13.4027-12.6552 31.4425-27.0115 76.8021-66.694l-.5143-.834C52.0659 130.0152 24.2272 103.0031.0005 79.3647V0z" transform="translate(308.0441 .001)"/></g></g><g class="B" filter="url(#B)" transform="translate(170 93)"><rect width="154" height="148.5" fill="none" class="E" rx="25"/><g class="E" transform="translate(49.5 49.5)"><circle cx="2.75" cy="2.75" r="2.75" fill="#4f4f4f"/></g><g class="E" transform="translate(104.5 49.5)"><circle cx="2.75" cy="2.75" r="2.75" fill="#4f4f4f"/></g><g><path stroke-width="8.8" d="M16.5 2.75L0 0" transform="translate(99 19.25)"/></g></g><path stroke-width="8.8" d="M13.6119 9.7228L0 0" class="B" filter="url(#C)" transform="matrix(.7071 -.70710678 .70710678 .7071 208.49997305 114.99996914)"/><path fill="none" stroke-width="7.7" d="M0 0q33 38.5 60.5 0" class="B" filter="url(#D)" transform="translate(219.5 186.5)"/></svg>