<svg xmlns="http://www.w3.org/2000/svg" xmlns:svg="http://www.w3.org/2000/svg" id="svg138" width="1000" height="407.479" class="netlify-logo-full-small netlify-logo masthead-home-logo" data-theme="light" version="1.1" viewBox="0 0 1000 407.479"><metadata id="metadata144"/><g id="g120" class="netlify-logo-full-small-lines" transform="scale(3.9063873)" style="fill:#00bfba;fill-opacity:1"><path id="path108" d="M 58.4705,103.765 V 77.4144 l 0.5461,-0.5461 h 6.5877 l 0.5462,0.5461 v 26.3506 l -0.5462,0.546 h -6.5877 z" style="fill:#00bfba;fill-opacity:1"/><path id="path110" d="M 58.4705,26.8971 V 0.546133 L 59.0166,0 h 6.5877 l 0.5462,0.546133 V 26.8971 l -0.5462,0.5461 h -6.5877 z" style="fill:#00bfba;fill-opacity:1"/><path id="path112" d="m 35.7973,85.2395 h -0.9045 l -4.5312,-4.5312 v -0.9046 l 8.4906,-8.4992 4.7958,0.0086 0.64,0.6314 v 4.7958 z" style="fill:#00bfba;fill-opacity:1"/><path id="path114" d="m 30.3616,24.7467 v -0.9131 l 4.5312,-4.5227 h 0.9045 l 8.4907,8.4907 v 4.7872 l -0.64,0.6485 h -4.7958 z" style="fill:#00bfba;fill-opacity:1"/><path id="path116" d="M 0.546133,48.3072 H 37.8795 l 0.5461,0.5461 v 6.5963 l -0.5461,0.5461 H 0.546133 L 0,55.4496 v -6.5963 z" style="fill:#00bfba;fill-opacity:1"/><path id="path118" d="m 220.314,48.3157 h 35.131 l 0.546,0.5462 v 6.5877 l -0.546,0.5461 h -37.879 l -0.546,-0.5461 2.739,-6.5877 0.546,-0.5462 z" style="fill:#00bfba;fill-opacity:1"/></g><g id="g136" class="netlify-logo-full-small-text" transform="scale(3.9063873)" style="fill:#004846;fill-opacity:1"><path id="path122" d="M 74.6666,65.8859 H 68.0789 L 67.5328,65.3397 V 49.92 c 0,-2.7477 -1.0752,-4.8725 -4.3862,-4.9408 -1.7066,-0.0427 -3.6522,0 -5.7344,0.0853 l -0.3157,0.3158 v 6.2293 13.7216 l -0.5461,0.5461 H 49.9626 L 49.4165,65.3312 V 38.9803 l 0.5461,-0.5462 H 64.785 c 5.76,0 10.4278,4.6678 10.4278,10.4278 v 16.4693 l -0.5462,0.5461 z" style="fill:#004846;fill-opacity:1"/><path id="path124" d="m 106.573,54.3488 -0.546,0.5461 H 88.9942 l -0.5462,0.5462 c 0,1.1008 1.1008,4.3946 5.4955,4.3946 1.6469,0 3.2939,-0.5461 3.8485,-1.6469 l 0.5462,-0.5461 h 6.5878 l 0.546,0.5461 c -0.546,3.2939 -3.294,8.2432 -11.537,8.2432 -9.3355,0 -13.7302,-6.5877 -13.7302,-14.2848 0,-7.6971 4.3947,-14.2848 13.184,-14.2848 8.7892,0 13.1842,6.5877 13.1842,14.2848 v 2.1931 z m -8.2434,-5.4955 c 0,-0.5461 -0.5461,-4.3946 -4.9408,-4.3946 -4.3946,0 -4.9408,3.8485 -4.9408,4.3946 l 0.5462,0.5462 h 8.7893 z" style="fill:#004846;fill-opacity:1"/><path id="path126" d="m 121.95,57.6427 c 0,1.1008 0.546,1.6469 1.647,1.6469 h 4.941 l 0.546,0.5462 v 5.4954 l -0.546,0.5462 h -4.941 c -4.941,0 -9.336,-2.2016 -9.336,-8.2432 V 45.5509 l -0.546,-0.5461 h -3.848 l -0.546,-0.5461 v -5.4955 l 0.546,-0.5461 h 3.848 l 0.546,-0.5462 v -4.9408 l 0.546,-0.5461 h 6.588 l 0.546,0.5461 v 4.9408 l 0.546,0.5462 h 6.042 l 0.546,0.5461 v 5.4955 l -0.546,0.5461 h -6.042 l -0.546,0.5461 v 12.0833 z" style="fill:#004846;fill-opacity:1"/><path id="path128" d="m 142.276,65.8859 h -6.588 l -0.546,-0.5462 V 27.9808 l 0.546,-0.5461 h 6.588 l 0.546,0.5461 v 37.3504 l -0.546,0.5461 z" style="fill:#004846;fill-opacity:1"/><path id="path130" d="m 157.107,34.0224 h -6.588 l -0.546,-0.5461 v -5.4955 l 0.546,-0.5461 h 6.588 l 0.546,0.5461 v 5.4955 z m 0,31.8635 h -6.588 l -0.546,-0.5462 v -26.368 l 0.546,-0.5461 h 6.588 l 0.546,0.5461 v 26.368 z" style="fill:#004846;fill-opacity:1"/><path id="path132" d="m 182.929,27.9808 v 5.4955 l -0.546,0.5461 h -4.941 c -1.101,0 -1.647,0.5461 -1.647,1.6469 v 2.2016 l 0.546,0.5462 h 5.496 l 0.546,0.5461 v 5.4955 l -0.546,0.5461 h -5.496 l -0.546,0.5461 v 19.7718 l -0.546,0.5461 h -6.588 l -0.546,-0.5461 V 45.5509 l -0.546,-0.5461 h -3.849 l -0.546,-0.5461 v -5.4955 l 0.546,-0.5461 h 3.849 l 0.546,-0.5462 v -2.2016 c 0,-6.0416 4.395,-8.2432 9.336,-8.2432 h 4.94 l 0.547,0.5462 z" style="fill:#004846;fill-opacity:1"/><path id="path134" d="m 203.247,66.432 c -2.202,5.4955 -4.395,8.7893 -12.083,8.7893 h -2.748 l -0.546,-0.5461 v -5.4955 l 0.546,-0.5461 h 2.748 c 2.747,0 3.294,-0.5461 3.848,-2.1931 v -0.5461 l -8.789,-21.4272 v -5.4955 l 0.546,-0.5461 h 4.941 l 0.546,0.5461 6.588,18.6795 h 0.546 l 6.588,-18.6795 0.546,-0.5461 h 4.941 l 0.546,0.5461 v 5.4955 l -8.79,21.9733 z" style="fill:#004846;fill-opacity:1"/></g></svg>