<svg xmlns="http://www.w3.org/2000/svg" xmlns:svg="http://www.w3.org/2000/svg" xmlns:xlink="http://www.w3.org/1999/xlink" id="svg3957" width="74mm" height="98mm" version="1.1" viewBox="0 0 74 98"><defs id="defs3951"><linearGradient id="linearGradient5117"><stop style="stop-color:#2ca02c;stop-opacity:1" id="stop5113" offset="0"/><stop style="stop-color:#000;stop-opacity:1" id="stop5115" offset="1"/></linearGradient><linearGradient id="linearGradient4784"><stop style="stop-color:#fff3d7;stop-opacity:1" id="stop4780" offset="0"/><stop style="stop-color:#000;stop-opacity:1" id="stop4782" offset="1"/></linearGradient><linearGradient id="linearGradient4786" x1="54.093" x2="79.963" y1="250.01" y2="312.663" gradientTransform="matrix(1.1818182,0,0,1.4375004,-19.242426,-86.942743)" gradientUnits="userSpaceOnUse" xlink:href="#linearGradient4784"/><linearGradient id="linearGradient5119" x1="-5.479" x2="15.89" y1="221.294" y2="254.971" gradientTransform="matrix(1.3036534,0,1.4042258e-8,1.1844429,-13.521903,-37.403546)" gradientUnits="userSpaceOnUse" xlink:href="#linearGradient5117"/><linearGradient id="linearGradient5119-1" x1="-5.479" x2="6.417" y1="221.294" y2="241.667" gradientTransform="matrix(0.95075606,0,0,0.83981999,73.990248,37.961903)" gradientUnits="userSpaceOnUse" xlink:href="#linearGradient5117"/><linearGradient id="linearGradient5119-1-2" x1="-5.479" x2="20.366" y1="221.294" y2="237.725" gradientTransform="matrix(0.94499478,0,0,0.88681393,166.16167,-47.892736)" gradientUnits="userSpaceOnUse" xlink:href="#linearGradient5117"/></defs><metadata id="metadata3954"/><g id="layer1" transform="translate(0,-199.00002)"><rect style="fill:url(#linearGradient5119-1-2);fill-opacity:1;stroke-width:3.01006447;stroke:#444;stroke-opacity:1;stroke-miterlimit:4;stroke-dasharray:none" id="rect5096-9-3" width="11.251" height="30.503" x="160.984" y="133.102" transform="matrix(0.79972947,0.60036054,-0.50409724,0.8636469,0,0)"/><rect style="fill:url(#linearGradient5119-1);fill-opacity:1;stroke-width:3.00055975;stroke:#444;stroke-opacity:1;stroke-miterlimit:4;stroke-dasharray:none" id="rect5096-9" width="11.32" height="28.886" x="68.781" y="209.366" transform="matrix(0.9954662,0.09511594,-0.12226903,0.99249699,0,0)"/><rect style="fill:url(#linearGradient5119);fill-opacity:1;stroke-width:3.000803;stroke:#444;stroke-opacity:1;stroke-miterlimit:4;stroke-dasharray:none" id="rect5096" width="15.522" height="40.74" x="-20.665" y="204.337" transform="matrix(0.98898665,-0.14800473,0.18027534,0.98361619,0,0)"/><ellipse style="fill:url(#linearGradient4786);fill-opacity:1;stroke-width:3;stroke:#444;stroke-opacity:1;stroke-miterlimit:4;stroke-dasharray:none" id="path3973" cx="37.042" cy="263.927" rx="34.396" ry="30.427"/><path style="fill:#444;fill-opacity:1;stroke-width:.56126553" id="path4788-7-3-6-0" d="m 29.104164,263.92706 a 7.9374976,11.906248 0 0 1 -7.725719,11.90201 7.9374976,11.906248 0 0 1 -8.137976,-11.2669 7.9374976,11.906248 0 0 1 7.291465,-12.50323 7.9374976,11.906248 0 0 1 8.527059,10.59971"/><path style="fill:#444;fill-opacity:1;stroke-width:.56126553" id="path4788-7-3-6-0-6" d="m 60.854169,263.92706 a 7.9374976,11.906248 0 0 1 -7.725719,11.90201 7.9374976,11.906248 0 0 1 -8.137975,-11.2669 7.9374976,11.906248 0 0 1 7.291464,-12.50323 7.9374976,11.906248 0 0 1 8.527059,10.59971"/><path style="fill:#fff;fill-opacity:1;stroke-width:.21603146" id="path5077" d="m 21.166669,261.28122 a 2.6458333,3.9687524 0 0 1 -2.575235,3.96734 2.6458333,3.9687524 0 0 1 -2.712664,-3.75562 2.6458333,3.9687524 0 0 1 2.430471,-4.16776 2.6458333,3.9687524 0 0 1 2.842369,3.5332"/><path style="fill:#fff;fill-opacity:1;stroke-width:.21603146" id="path5077-7" d="m 52.916662,261.28122 a 2.6458333,3.9687526 0 0 1 -2.575235,3.96734 2.6458333,3.9687526 0 0 1 -2.712664,-3.75562 2.6458333,3.9687526 0 0 1 2.430471,-4.16776 2.6458333,3.9687526 0 0 1 2.842368,3.5332"/></g></svg>