<svg xmlns="http://www.w3.org/2000/svg" xmlns:xlink="http://www.w3.org/1999/xlink" width="512" height="212" preserveAspectRatio="xMidYMid" version="1.1" viewBox="0 0 512 212"><g><path fill="#FFF" d="M19.4782609,2.7826087 L492.521739,2.7826087 C501.742493,2.7826087 509.217391,10.2575068 509.217391,19.4782609 L509.217391,192 C509.217391,201.220754 501.742493,208.695652 492.521739,208.695652 L19.4782609,208.695652 C10.2575068,208.695652 2.7826087,201.220754 2.7826087,192 L2.7826087,19.4782609 C2.7826087,10.2575068 10.2575068,2.7826087 19.4782609,2.7826087 Z"/><path fill="#EAEAEA" d="M19.4782609,0 L492.521739,0 C503.279286,0 512,8.72071444 512,19.4782609 L512,192 C512,202.757546 503.279286,211.478261 492.521739,211.478261 L19.4782609,211.478261 C8.72071444,211.478261 0,202.757546 0,192 L0,19.4782609 C0,8.72071444 8.72071444,0 19.4782609,0 Z M19.4782609,5.56521739 C11.7942991,5.56521739 5.56521739,11.7942991 5.56521739,19.4782609 L5.56521739,192 C5.56521739,199.683962 11.7942991,205.913043 19.4782609,205.913043 L492.521739,205.913043 C500.205701,205.913043 506.434783,199.683962 506.434783,192 L506.434783,19.4782609 C506.434783,11.7942991 500.205701,5.56521739 492.521739,5.56521739 L19.4782609,5.56521739 Z"/><polygon fill="#000" points="272.696 40.203 272.694 125.099 303.879 93.921 319.619 109.662 261.977 167.3 203.608 108.931 219.349 93.19 250.434 124.275 250.435 40.203"/><polygon fill="#000" points="72.162 162.979 72.162 97.232 112.417 137.489 152.977 96.932 152.977 162.315 175.238 162.315 175.238 43.192 112.418 106.008 49.901 43.487 49.901 162.979"/><polygon fill="#F9AC00" points="447.847 36.651 463.587 52.392 416.438 99.539 462.137 145.24 446.396 160.981 400.696 115.282 354.995 160.981 339.255 145.24 384.95 99.539 337.804 52.392 353.544 36.651 400.696 83.797"/></g></svg>