<svg xmlns="http://www.w3.org/2000/svg" xmlns:svg="http://www.w3.org/2000/svg" id="svg2" width="210mm" height="297mm" version="1.1" viewBox="0 0 744.094 1052.362"><metadata id="metadata7"/><flowRoot id="flowRoot4137" xml:space="preserve" style="font-style:normal;font-variant:normal;font-weight:400;font-stretch:normal;font-size:40px;line-height:125%;font-family:'Source Sans Pro';-inkscape-font-specification:'Source Sans Pro';letter-spacing:0;word-spacing:0;fill:#000;fill-opacity:1;stroke:none;stroke-width:1px;stroke-linecap:butt;stroke-linejoin:miter;stroke-opacity:1"><flowRegion id="flowRegion4139"><rect id="rect4141" width="840.447" height="638.416" x="1721.3" y="-870.968" style="font-style:normal;font-variant:normal;font-weight:400;font-stretch:normal;font-family:'Source Sans Pro';-inkscape-font-specification:'Source Sans Pro'"/></flowRegion><flowPara id="flowPara4143"/></flowRoot><flowRoot id="flowRoot4174" xml:space="preserve" style="font-style:normal;font-weight:400;font-size:40px;line-height:125%;font-family:sans-serif;letter-spacing:0;word-spacing:0;fill:#000;fill-opacity:1;stroke:none;stroke-width:1px;stroke-linecap:butt;stroke-linejoin:miter;stroke-opacity:1"><flowRegion id="flowRegion4176"><rect id="rect4178" width="218.193" height="436.386" x="-5107.332" y="-580.044"/></flowRegion><flowPara id="flowPara4180"/></flowRoot><g id="g4168" transform="matrix(1.6663975,0,0,1.6663975,5166.1303,2051.6263)"><g id="g4170" transform="matrix(1.890507,0,0,1.890507,711.477,-1669.7512)" style="font-style:normal;font-variant:normal;font-weight:900;font-stretch:normal;font-size:412.52355957px;line-height:125%;font-family:'Source Sans Pro';-inkscape-font-specification:'Source Sans Pro Heavy';letter-spacing:0;word-spacing:0;fill:#442178;fill-opacity:1;stroke:none;stroke-width:1px;stroke-linecap:butt;stroke-linejoin:miter;stroke-opacity:1"><path id="path4170" d="m -1852.3681,503.80191 c -10.7257,0 -19.8012,-1.6501 -27.2266,-4.95029 -7.1504,-3.30019 -13.0632,-7.97545 -17.7385,-14.0258 -4.4003,-6.32536 -7.5629,-13.75078 -9.488,-22.27627 -1.9251,-8.52549 -2.8877,-18.15104 -2.8877,-28.87665 l 0,-91.99275 -60.2285,0 0,-47.37578 c 60.5033,-0.13212 121.007,-0.0644 181.5104,-0.0644 l 0,47.44021 -61.8785,0 c -0.8251,17.87602 -1.3751,35.0645 -1.6501,51.56544 -0.275,16.22593 -0.4125,30.52674 -0.4125,42.90245 0,7.15041 1.3751,12.1007 4.1252,14.85085 3.0252,2.47514 6.8754,3.71271 11.5507,3.71271 3.8502,0 7.4254,-0.13751 10.7256,-0.41252 3.5752,-0.55003 7.7004,-1.51259 12.3757,-2.88767 l 7.8379,45.3776 c -6.6003,1.92511 -13.8882,3.5752 -21.8637,4.95028 -7.7005,1.37508 -15.9509,2.06262 -24.7514,2.06262 z" style="font-style:normal;font-variant:normal;font-weight:700;font-stretch:normal;font-family:'Source Sans Pro';-inkscape-font-specification:'Source Sans Pro Bold';fill:#442178;fill-opacity:1"/></g><path id="path4172" d="m -2970.4097,-1002.2583 0,152.37049 c 0,20.27684 1.8217,38.47089 5.461,54.58838 3.6397,16.1175 9.6191,30.15733 17.9378,42.11547 8.8387,11.43824 20.0164,20.27607 33.5344,26.5151 14.0377,6.23903 31.195,9.36022 51.4718,9.36022 9.5817,0 18.716,-0.55564 27.6083,-1.41788 -2.3626,-0.3022 -4.8163,-0.51313 -7.0711,-0.9231 -4.2892,-0.77988 -8.3852,-1.75456 -12.2845,-2.92437 -3.8994,-1.16982 -7.6046,-2.53512 -11.1141,-4.09487 -3.3795,-1.55975 -6.6092,-3.28095 -9.6963,-5.16565 -3.087,-1.88472 -6.0303,-3.9345 -8.8249,-6.14415 -2.7946,-2.20967 -5.4439,-4.58066 -7.9459,-7.11525 -2.5022,-2.53461 -4.8577,-5.23049 -7.0673,-8.09005 -2.0796,-2.98953 -4.0137,-6.11073 -5.8009,-9.36022 -1.7873,-3.2495 -3.4271,-6.62617 -4.9219,-10.13563 -1.4946,-3.50944 -2.8411,-7.14899 -4.0433,-10.91841 -1.2023,-3.76942 -2.2618,-7.67184 -3.1716,-11.70121 -1.8197,-8.05876 -3.1816,-16.63742 -4.0913,-25.73599 -0.9099,-9.0986 -1.3661,-18.71398 -1.3661,-28.85239 l 0,-152.37049 -48.6141,0 z" style="font-style:normal;font-variant:normal;font-weight:900;font-stretch:normal;font-size:412.52355957px;line-height:125%;font-family:'Source Sans Pro';-inkscape-font-specification:'Source Sans Pro Heavy';letter-spacing:0;word-spacing:0;fill:#95f;fill-opacity:1;stroke:none;stroke-width:1px;stroke-linecap:butt;stroke-linejoin:miter;stroke-opacity:1"/><path id="path4174" d="m -3035.7799,-1112.7421 -48.4923,3.9324 0,85.0063 48.6143,0 0,-64.8791 -0.121,0 0,-24.0596 z" style="font-style:normal;font-variant:normal;font-weight:900;font-stretch:normal;font-size:412.52355957px;line-height:125%;font-family:'Source Sans Pro';-inkscape-font-specification:'Source Sans Pro Heavy';letter-spacing:0;word-spacing:0;fill:#95f;fill-opacity:1;stroke:none;stroke-width:1px;stroke-linecap:butt;stroke-linejoin:miter;stroke-opacity:1"/></g></svg>